<svg width="22" height="22" viewBox="0 0 22 22" fill="none" xmlns="http://www.w3.org/2000/svg">
<rect width="21.8806" height="3.28208" transform="translate(0 18.6016)" fill="#13C690"/>
<rect width="21.8806" height="18.5985" fill="#252E3F"/>
<path d="M3.79941 5.12414H5.50318V12.5781H3.79941V5.12414ZM9.28882 12.7272C7.72348 12.7272 6.72252 11.9818 6.30723 10.885L7.77673 10.0331C8.04294 10.6507 8.50083 11.066 9.34206 11.066C10.1514 11.066 10.3537 10.7466 10.3537 10.4591C10.3537 10.0012 9.92773 9.82015 8.80964 9.51134C7.70219 9.20254 6.61604 8.67011 6.61604 7.2432C6.61604 5.80565 7.82997 4.97507 9.11844 4.97507C10.343 4.97507 11.3014 5.56074 11.8445 6.65753L10.4069 7.49877C10.1514 6.96634 9.79995 6.63624 9.11844 6.63624C8.58602 6.63624 8.3198 6.90245 8.3198 7.20061C8.3198 7.54136 8.50083 7.77563 9.66152 8.12703C10.7903 8.46779 12.0574 8.86178 12.0574 10.4378C12.0574 11.8753 10.9074 12.7272 9.28882 12.7272ZM16.9034 5.12414H18.6071V12.5781H16.9034V9.61783H14.5607V12.5781H12.8569V5.12414H14.5607V7.97795H16.9034V5.12414Z" fill="white"/>
</svg>
